/* XPM */
static char *result[] = {
/* columns rows colors chars-per-pixel */
"64 64 9 1 ",
"  c black",
". c #234E03",
"X c #03384E",
"o c #44034E",
"O c #FF0441",
"+ c #4DFF00",
"@ c #D1D90D",
"# c #00A492",
"$ c None",
/* pixels */
"$$$$$$$$$$$$$$$$$$$$$$$$$$$$$$$$$$$$$$$$$$$$$$$$$$$$$$$$$$$$$$$$",
"$$$$$$$$$$$$$$$$$$$$$$$$$$$$$$$$$$$$$$$$$$$$$$$$$$$$$$$$$$$$$$$$",
"$$$$$$$$$$$$$$$$$$$$$$$$$$$$$$$$$$$$$$$$$$$$$$$$$$$$$$$$$$$$$$$$",
"$$$$$$$$$$$$$$$$$$$$$$$$$$$$$$$$$$$$$$$$$$$$$$$$$$$$$$$$$$$$$$$$",
"$$$$$$$$$$$$$$$$$$$$$$$$$$$$$$$$$$$$$$$$$$$$$$$$$$$$$$$$$$$$$$$$",
"$$$$$$$$$$$$$$$$$$$$$$$$$$$$$$$$$$$$$$$$$$$$$$$$$$$$$$$$$$$$$$$$",
"$$$$$$$$$$$$$$$$$$$$$$$$$$$$$$$$$$$$$$$$$$$$$$$$$$$$$$$$$$$$$$$$",
"$$$$$$$$$$$$$$$$$$$$$$$$$$$$$$$$$$$$$$$$$$$$$$$$$$$$$$$$$$$$$$$$",
"$$$$$$$$$$$$$$$$$$$$$$$$$$$$$$$$$$$$$$$$$$$$$$$$$$$$$$$$$$$$$$$$",
"$$$$$$$$$$$$$$$$$$$$$$$$$$$$$$$$$$$$$$$$$$$$$$$$$$$$$$$$$$$$$$$$",
"$$$$$$$$$$$$$$$$$$$$$$$$$$$$$$$$$$$$$$$$$$$$$$$$$$$$$$$$$$$$$$$$",
"$$$$$$$$$$$$$$$$$$$$$$$$$$$$$$$$$$$$$$$$$$$$$$$$$$$$$$$$$$$$$$$$",
"$$$$$$$$$$$$$$$$$$$$$$$$$$$$$$$$$$$$$$$$$$$$$$$$$$$$$$$$$$$$$$$$",
"$$$$$$$$$$$$$$$$$$$$$$$$$$$$$$$$$$$$$$$$$$$$$$$$$$$$$$$$$$$$$$$$",
"$$$$$$$$$$$$$$$$$$$$$$$$$$$$$$$$$$$$$$$$$$$$$$$$$$$$$$$$$$$$$$$$",
"$$$$$$$$$$$$$$$$$$$$$$$$$$$$$$$$$$$$$$$$$$$$$$$$$$$$$$$$$$$$$$$$",
"$$$$$$$$$$$$$$$$$$$$$$$$$$$$$$$$$$$$$$$$$$$$$$$$$$$$$$$$$$$$$$$$",
"$$$$$$$$$$$$$$$$$$$$$$$$$$$$$$$$$$$$$$$$$$$$$$$$$$$$$$$$$$$$$$$$",
"$$$$$$$$$                                              $$$$$$$$$",
"$$$$$$$$$ ############################################ $$$$$$$$$",
"$$$$$$$$$ #                                          # $$$$$$$$$",
"$$$$$$$$$ #                                          # $$$$$$$$$",
"$$$$$$$$$ #  oooooo XXXXXX ... ... OOOOO @@@@@  +++  # $$$$$$$$$",
"$$$$$$$$$ #  oooooo XX  XX ... ... OOOOO @@@@@  +++  # $$$$$$$$$",
"$$$$$$$$$ #  oo  oo XX  XX ... ... OOOOO @@@@@  +++  # $$$$$$$$$",
"$$$$$$$$$ #  oo  oo XX  XX ... ... O  OO @   @  +++  # $$$$$$$$$",
"$$$$$$$$$ #  oo  oo XX  XX ... ... O     @      +++  # $$$$$$$$$",
"$$$$$$$$$ #  oo  oo XX  XX ... ... O     @      +++  # $$$$$$$$$",
"$$$$$$$$$ #  oooooo XXXXXX ... ... O     @  @@  +++  # $$$$$$$$$",
"$$$$$$$$$ #  oooooo XXXXXX ... ... OOO   @@@@@  +++  # $$$$$$$$$",
"$$$$$$$$$ #  oo     XX  XX ... ... OOOOO @@@@@  +++  # $$$$$$$$$",
"$$$$$$$$$ #  oo     XX  XX ... ... OOOOO @@@@@  +++  # $$$$$$$$$",
"$$$$$$$$$ #  oo     XX  XX ... ... OOOOO @@@@@  +++  # $$$$$$$$$",
"$$$$$$$$$ #  oo     XX  XX ... ...   OOO @   @  +++  # $$$$$$$$$",
"$$$$$$$$$ #  oo     XX  XX ... ...     O @      +++  # $$$$$$$$$",
"$$$$$$$$$ #  oo     XX  XX ... ...     O @           # $$$$$$$$$",
"$$$$$$$$$ #  oo     XX  XX ... ... OO  O @   @       # $$$$$$$$$",
"$$$$$$$$$ #  oo     XX  XX ... ... OO  O @@@@@  +++  # $$$$$$$$$",
"$$$$$$$$$ #  oo     XX  XX ... ... OOOOO @@@@@  +++  # $$$$$$$$$",
"$$$$$$$$$ #  oo     XX  XX ....... OOOOO @@@@@  +++  # $$$$$$$$$",
"$$$$$$$$$ #  oo     XX  XX ....... OOOOO @@@@@  +++  # $$$$$$$$$",
"$$$$$$$$$ #                                          # $$$$$$$$$",
"$$$$$$$$$ #                                          # $$$$$$$$$",
"$$$$$$$$$ ############################################ $$$$$$$$$",
"$$$$$$$$$                                              $$$$$$$$$",
"$$$$$$$$$$$$$$$$$$$$$$$$$$$$$$$$$$$$$$$$$$$$$$$$$$$$$$$$$$$$$$$$",
"$$$$$$$$$$$$$$$$$$$$$$$$$$$$$$$$$$$$$$$$$$$$$$$$$$$$$$$$$$$$$$$$",
"$$$$$$$$$$$$$$$$$$$$$$$$$$$$$$$$$$$$$$$$$$$$$$$$$$$$$$$$$$$$$$$$",
"$$$$$$$$$$$$$$$$$$$$$$$$$$$$$$$$$$$$$$$$$$$$$$$$$$$$$$$$$$$$$$$$",
"$$$$$$$$$$$$$$$$$$$$$$$$$$$$$$$$$$$$$$$$$$$$$$$$$$$$$$$$$$$$$$$$",
"$$$$$$$$$$$$$$$$$$$$$$$$$$$$$$$$$$$$$$$$$$$$$$$$$$$$$$$$$$$$$$$$",
"$$$$$$$$$$$$$$$$$$$$$$$$$$$$$$$$$$$$$$$$$$$$$$$$$$$$$$$$$$$$$$$$",
"$$$$$$$$$$$$$$$$$$$$$$$$$$$$$$$$$$$$$$$$$$$$$$$$$$$$$$$$$$$$$$$$",
"$$$$$$$$$$$$$$$$$$$$$$$$$$$$$$$$$$$$$$$$$$$$$$$$$$$$$$$$$$$$$$$$",
"$$$$$$$$$$$$$$$$$$$$$$$$$$$$$$$$$$$$$$$$$$$$$$$$$$$$$$$$$$$$$$$$",
"$$$$$$$$$$$$$$$$$$$$$$$$$$$$$$$$$$$$$$$$$$$$$$$$$$$$$$$$$$$$$$$$",
"$$$$$$$$$$$$$$$$$$$$$$$$$$$$$$$$$$$$$$$$$$$$$$$$$$$$$$$$$$$$$$$$",
"$$$$$$$$$$$$$$$$$$$$$$$$$$$$$$$$$$$$$$$$$$$$$$$$$$$$$$$$$$$$$$$$",
"$$$$$$$$$$$$$$$$$$$$$$$$$$$$$$$$$$$$$$$$$$$$$$$$$$$$$$$$$$$$$$$$",
"$$$$$$$$$$$$$$$$$$$$$$$$$$$$$$$$$$$$$$$$$$$$$$$$$$$$$$$$$$$$$$$$",
"$$$$$$$$$$$$$$$$$$$$$$$$$$$$$$$$$$$$$$$$$$$$$$$$$$$$$$$$$$$$$$$$",
"$$$$$$$$$$$$$$$$$$$$$$$$$$$$$$$$$$$$$$$$$$$$$$$$$$$$$$$$$$$$$$$$",
"$$$$$$$$$$$$$$$$$$$$$$$$$$$$$$$$$$$$$$$$$$$$$$$$$$$$$$$$$$$$$$$$",
"$$$$$$$$$$$$$$$$$$$$$$$$$$$$$$$$$$$$$$$$$$$$$$$$$$$$$$$$$$$$$$$$"
};
