/* XPM */
static char *_f28dcebcf46464bd3ddb4001a2bcb044BFoCMNR7PJQSPtF[] = {
/* columns rows colors chars-per-pixel */
"32 32 8 1 ",
"  c None",
". c black",
"X c #2A2121",
"o c #3F3D3D",
"O c #461700",
"+ c #BBB2B2",
"@ c #FA9EFA",
"# c #F1C1F1",
/* pixels */
"                                ",
"                                ",
"                                ",
"                                ",
"                                ",
"                                ",
"                                ",
"                                ",
"                                ",
"                                ",
"                                ",
"                                ",
"                                ",
"           ...                  ",
"           .o+.                 ",
"           .o++.                ",
"            .o++.               ",
"             .o++.              ",
"              .o++.             ",
"               .o++.            ",
"                .o++.           ",
"                 .o++.          ",
"                  .o++.  ...    ",
"                   .o++. .X.    ",
"                    .o++.XX.    ",
"                     .o.XX.     ",
"                      .XXO.     ",
"                    ..XXOO..    ",
"                    .XX..OO..   ",
"                    ... ..OO@#  ",
"                         ..#@#..",
"                          @@#..."
};
