/* XPM */
static char *_295bd6ae0d64a39b39136cb6d83d00e7Ws4emPDZkF3BoGv[] = {
/* columns rows colors chars-per-pixel */
"32 32 9 1 ",
"  c None",
". c black",
"X c #2A2121",
"o c #3F3D3D",
"O c #461700",
"+ c #05304A",
"@ c #BBB2B2",
"# c #FA9EFA",
"$ c #F1C1F1",
/* pixels */
"                                ",
"                                ",
"                                ",
"                                ",
"                                ",
"                                ",
"                                ",
"                                ",
"                                ",
"                  +++           ",
"                 ++             ",
"               ++               ",
"             +++                ",
"            +    +++      ++    ",
"           +   ++       +++     ",
"          +   +      +++        ",
"         +   +     ++           ",
"        +   ++    ++            ",
"           ++   ++              ",
"           +          ...       ",
"      ....           ..X.       ",
"      .o@.............XX...$#...",
"      .oo@@@@@@@@@@@@@XOOO$$##..",
"      ..ooooooooooooooXOOO$$##..",
"        ..............XX...$#...",
"                     ..X.     ..",
"                      ...     ..",
"                              ..",
"                               .",
"                               .",
"                                ",
"                                "
};
