/* XPM */
static char *bdb28e8237ca4ea6db4dd113cbb80e2fc0dZQWGjQldlliEg[] = {
/* columns rows colors chars-per-pixel */
"32 32 6 1 ",
"  c None",
". c black",
"X c #2A2121",
"o c #3F3D3D",
"O c #461700",
"+ c #BBB2B2",
/* pixels */
"                                ",
"                                ",
"                                ",
"                                ",
"                                ",
"                                ",
"                                ",
"                                ",
"                                ",
"                                ",
"                                ",
"                                ",
"                                ",
"                                ",
"                                ",
"                                ",
"                                ",
"               ...              ",
"               .o+.             ",
"               .o++.            ",
"                .o++.           ",
"                 .o++.          ",
"                  .o++.         ",
"                   .o++.        ",
"                    .o++.       ",
"                     .o++.      ",
"                      .o++.  ...",
"                       .o++. .X.",
"                        .o++.XX.",
"                         .o.XX. ",
"                          .XXO. ",
"                        ..XXOO.."
};
