/* XPM */
static char *f942c269673d439ea4206418c045dad4LpGs94lpUq62HLzL[] = {
/* columns rows colors chars-per-pixel */
"32 32 6 1 ",
"  c None",
". c black",
"X c #2A2121",
"o c #3F3D3D",
"O c #461700",
"+ c #BBB2B2",
/* pixels */
"                                ",
"                                ",
"                                ",
"                                ",
"                                ",
"                                ",
"                                ",
"                                ",
"                                ",
"                                ",
"                                ",
"                                ",
"                                ",
"                                ",
"                  ...           ",
"                  .o+.          ",
"                  .o++.         ",
"                   .o++.        ",
"                    .o++.       ",
"                     .o++.      ",
"                      .o++.     ",
"                       .o++.    ",
"                        .o++.   ",
"                         .o++.  ",
"                          .o++. ",
"                           .o++.",
"                            .o.X",
"                             .XX",
"                           ..XXO",
"                           .XX..",
"                           ... .",
"                                "
};
