/* XPM */
static char *_98c6adce43a4f5bbd0d7ea311925973U5LCw4OBeYm0mn3M[] = {
/* columns rows colors chars-per-pixel */
"32 32 9 1 ",
"  c None",
". c black",
"X c #2A2121",
"o c #461700",
"O c #05304A",
"+ c #6A5757",
"@ c #BBB2B2",
"# c #FA9EFA",
"$ c #F1C1F1",
/* pixels */
"                                ",
"                                ",
"                                ",
"                                ",
"                                ",
"                     O          ",
"                   OOO          ",
"                  OO            ",
"           ....                 ",
"           .+@..       OO       ",
"           .+@@..   OOO         ",
"           .++@@..              ",
"           ..++@@..   OOOOOO    ",
"            ..++@@..            ",
"             ..++@@..           ",
"              ...+@@..          ",
"                .++@@. ...      ",
"                 ..+@@.XXX.     ",
"                   .+@XXX.      ",
"                    .XXX.       ",
"                   .XXXXo.      ",
"                   .XX.ooo....  ",
"                   .X. .oo$$##. ",
"                    .   .o$$##..",
"                         ..$#...",
"                           .....",
"                             ...",
"                              ..",
"                               .",
"                               .",
"                                ",
"                                "
};
