/* XPM */
static char *result[] = {
/* columns rows colors chars-per-pixel */
"64 64 4 1 ",
"  c black",
". c #353535",
"X c #5F4D4D",
"o c #847F7F",
/* pixels */
"                                                                ",
"o.. Xoooo.. Xoooo.. Xoooo.. Xoooo.. Xoooo.. Xoooo.. Xoooo.. Xooo",
"oo. XXoooo. XXoooo. XXoooo. XXoooo. XXoooo. XXoooo. XXoooo. XXoo",
"oo. XXoooo. XXoooo. XXoooo. XXoooo. XXoooo. XXoooo. XXoooo. XXoo",
"oo. XXoooo. XXoooo. XXoooo. XXoooo. XXoooo. XXoooo. XXoooo. XXoo",
"oo. XXoooo. XXoooo. XXoooo. XXoooo. XXoooo. XXoooo. XXoooo. XXoo",
"o.. Xoooo.. Xoooo.. Xoooo.. Xoooo.. Xoooo.. Xoooo.. Xoooo.. Xooo",
"                                                                ",
"oo.. Xoooo.. ooooo.. Xoooo.. Xoooo.. Xoooo.. Xoooo.. Xoooo.. Xoo",
"ooo. XXoooo. oooooo. XXoooo. XXoooo. XXoooo. XXoooo. XXoooo. XXo",
"ooo. XXoooo. oooooo. XXoooo. XXoooo. XXoooo. XXoooo. XXoooo. XXo",
"ooo. XXoooo. oooooo. XXoooo. XXoooo. XXoooo. XXoooo. XXoooo. XXo",
"ooo. XXoooo. oooooo. XXoooo. XXoooo. XXoooo. XXoooo. XXoooo. XXo",
"ooo. XXoooo. oooooo. XXoooo. XXoooo. XXoooo. XXoooo. XXoooo. XXo",
"oo.. Xoooo.. ooooo.. Xoooo.. Xoooo.. Xoooo.. Xoooo.. Xoooo.. Xoo",
"                                                                ",
"o.. Xoooo.. ooooo.. Xoooo.. Xoooo.. Xoooo.. Xoooo.. Xoooo.. Xooo",
"oo. XXoooo. oooooo. XXoooo. XXoooo. XXoooo. XXoooo. XXoooo. XXoo",
"oo. XXoooo. oooooo. XXoooo. XXoooo. XXoooo. XXoooo. XXoooo. XXoo",
"oo. XXoooo. oooooo. XXoooo. XXoooo. XXoooo. XXoooo. XXoooo. XXoo",
"oo. XXoooo. oooooo. XXoooo. XXoooo. XXoooo. XXoooo. XXoooo. XXoo",
"oo. XXoooo. oooooo. XXoooo. XXoooo. XXoooo. XXoooo. XXoooo. XXoo",
"o.. Xoooo.. ooooo.. Xoooo.. Xoooo.. Xoooo.. Xoooo.. Xoooo.. Xooo",
"                                                                ",
"oo.. Xoooo.. Xoooo.. Xoooo.. Xoooo.. Xoooo.. Xoooo.. Xoooo.. Xoo",
"ooo. XXoooo. XXoooo. XXoooo. XXoooo. XXoooo. XXoooo. XXoooo. XXo",
"ooo. XXoooo. XXoooo. XXoooo. XXoooo. XXoooo. XXoooo. XXoooo. XXo",
"ooo. XXoooo. XXoooo. XXoooo. XXoooo. XXoooo. XXoooo. XXoooo. XXo",
"ooo. XXoooo. XXoooo. XXoooo. XXoooo. XXoooo. XXoooo. XXoooo. XXo",
"ooo. XXoooo. XXoooo. XXoooo. XXoooo. XXoooo. XXoooo. XXoooo. XXo",
"oo.. Xoooo.. Xoooo.. Xoooo.. Xoooo.. Xoooo.. Xoooo.. Xoooo.. Xoo",
"                                                                ",
"o.. Xoooo.. Xoooo.. Xoooo.. Xoooo.. Xoooo.. Xoooo.. Xoooo.. Xooo",
"oo. XXoooo. XXoooo. XXoooo. XXoooo. XXoooo. XXoooo. XXoooo. XXoo",
"oo. XXoooo. XXoooo. XXoooo. XXoooo. XXoooo. XXoooo. XXoooo. XXoo",
"oo. XXoooo. XXoooo. XXoooo. XXoooo. XXoooo. XXoooo. XXoooo. XXoo",
"oo. XXoooo. XXoooo. XXoooo. XXoooo. XXoooo. XXoooo. XXoooo. XXoo",
"oo. XXoooo. XXoooo. XXoooo. XXoooo. XXoooo. XXoooo. XXoooo. XXoo",
"o.. Xoooo.. Xoooo.. Xoooo.. Xoooo.. Xoooo.. Xoooo.. Xoooo.. Xooo",
"                                                                ",
"oo.. Xoooo.. Xoooo.. Xoooo.. Xoooo.. Xoooo.. Xoooo.. Xoooo.. Xoo",
"ooo. XXoooo. XXoooo. XXoooo. XXoooo. XXoooo. XXoooo. XXoooo. XXo",
"ooo. XXoooo. XXoooo. XXoooo. XXoooo. XXoooo. XXoooo. XXoooo. XXo",
"ooo. XXoooo. XXoooo. XXoooo. XXoooo. XXoooo. XXoooo. XXoooo. XXo",
"ooo. XXoooo. XXoooo. XXoooo. XXoooo. XXoooo. XXoooo. XXoooo. XXo",
"ooo. XXoooo. XXoooo. XXoooo. XXoooo. XXoooo. XXoooo. XXoooo. XXo",
"oo.. Xoooo.. Xoooo.. Xoooo.. Xoooo.. Xoooo.. Xoooo.. Xoooo.. Xoo",
"                                                                ",
"o.. Xoooo.. Xoooo.. Xoooo.. Xoooo.. Xoooo.. Xoooo.. Xoooo.. Xooo",
"oo. XXoooo. XXoooo. XXoooo. XXoooo. XXoooo. XXoooo. XXoooo. XXoo",
"oo. XXoooo. XXoooo. XXoooo. XXoooo. XXoooo. XXoooo. XXoooo. XXoo",
"oo. XXoooo. XXoooo. XXoooo. XXoooo. XXoooo. XXoooo. XXoooo. XXoo",
"oo. XXoooo. XXoooo. XXoooo. XXoooo. XXoooo. XXoooo. XXoooo. XXoo",
"oo. XXoooo. XXoooo. XXoooo. XXoooo. XXoooo. XXoooo. XXoooo. XXoo",
"o.. Xoooo.. Xoooo.. Xooooo. Xoooo.. Xoooo.. Xoooo.. Xoooo.. Xooo",
"                                                                ",
"oo.. Xoooo.. Xoooo.. Xoooo.. Xoooo.. Xoooo.. Xoooo.. Xoooo.. Xoo",
"ooo. XXoooo. XXoooo. XXoooo. XXoooo. XXoooo. XXoooo. XXoooo. XXo",
"ooo. XXoooo. XXoooo. XXoooo. XXoooo. XXoooo. XXoooo. XXoooo. XXo",
"ooo. XXoooo. XXoooo. XXoooo. XXoooo. XXoooo. XXoooo. XXoooo. XXo",
"ooo. XXoooo. XXoooo. XXoooo. XXoooo. XXoooo. XXoooo. XXoooo. XXo",
"ooo. XXoooo. XXoooo. XXoooo. XXoooo. XXoooo. XXoooo. XXoooo. XXo",
"oo.. Xoooo.. Xoooo.. Xoooo.. Xoooo.. Xoooo.. Xoooo.. Xoooo.. Xoo",
"                                                                "
};
